<?xml version="1.0" encoding="utf-8"?>
<svg version="1.1" id="Layer_1" xmlns="http://www.w3.org/2000/svg" x="0px" y="0px" width="100%" viewBox="0 0 159 154" enable-background="new 0 0 159 154">
  <path fill="#C4923E" opacity="1.000000" stroke="none" d=" M114.000000,104.056366 C115.351913,96.835381 112.690582,92.567688 106.485893,89.616989 C102.602936,87.770432 99.325768,84.650032 94.976997,81.526825 C94.976997,98.085831 94.820992,113.512138 95.064278,128.932144 C95.145958,134.109024 93.133820,136.721878 88.938049,139.975143 C80.391594,146.601776 73.858124,143.801941 66.114494,138.981155 C61.892792,136.352921 60.882545,133.735962 60.905842,129.197128 C61.078613,95.535042 61.071217,61.871315 60.904907,28.209171 C60.885052,24.190506 62.527302,22.333014 65.536705,19.911119 C73.633865,13.394726 80.865089,13.286147 89.341331,19.421423 C93.158363,22.184267 95.244873,24.458639 95.052856,29.188839 C94.762444,36.342918 94.794006,43.525509 95.106003,50.677784 C95.184204,52.470528 96.415497,54.824909 97.870728,55.834408 C102.841309,59.282509 108.147781,62.246407 113.919426,65.755821 C113.919426,55.379864 113.919426,45.375511 113.919426,33.786179 C121.489090,38.060829 128.029037,41.615364 134.361404,45.507607 C135.141724,45.987228 134.972794,48.268478 134.976181,49.715477 C135.014465,66.046928 134.959213,82.378700 135.040421,98.709831 C135.054184,101.478912 135.867599,104.252052 135.800354,107.010864 C135.750839,109.042992 135.530869,112.050339 134.244370,112.906601 C128.059586,117.023079 121.486595,120.556290 114.000000,124.907700 C114.000000,117.354111 114.000000,110.949600 114.000000,104.056366 z"/>
  <path fill="#965015" opacity="1.000000" stroke="none" d=" M56.000298,70.000000 C56.000298,90.905212 56.000298,111.310417 56.000298,131.871460 C47.851978,129.969040 45.999969,127.876381 45.999874,121.192352 C45.999470,93.370583 45.999435,65.548813 45.999897,37.727047 C46.000008,31.041248 48.289200,28.488468 56.000298,27.142553 C56.000298,41.326794 56.000298,55.413395 56.000298,70.000000 z"/>
  <path fill="#6D340A" opacity="1.000000" stroke="none" d=" M41.010014,53.002060 C41.010014,76.820335 41.010014,100.139198 41.010014,123.524361 C33.801392,121.996422 32.099144,120.028687 32.098866,113.512833 C32.097908,91.179810 32.098438,68.846786 32.098526,46.513767 C32.098553,38.829910 32.636185,38.143787 41.010014,35.650204 C41.010014,41.361279 41.010014,46.931965 41.010014,53.002060 z"/>
  <path fill="#3E1E04" opacity="1.000000" stroke="none" d=" M27.000380,78.000000 C27.000380,90.927780 27.000380,103.355568 27.000380,115.932518 C22.343519,115.154419 20.794147,113.083527 20.875240,108.573029 C21.183725,91.414391 21.000103,74.246902 20.998672,57.082718 C20.998562,55.749657 21.170225,54.384632 20.946569,53.088917 C19.808558,46.496002 20.180140,45.842884 27.000380,43.500118 C27.000380,54.860317 27.000380,66.180161 27.000380,78.000000 z"/>
</svg>