<?xml version="1.0" standalone="no"?>
<!DOCTYPE svg PUBLIC "-//W3C//DTD SVG 20010904//EN"
 "http://www.w3.org/TR/2001/REC-SVG-20010904/DTD/svg10.dtd">
<svg version="1.0" xmlns="http://www.w3.org/2000/svg"
 width="159.000000pt" height="154.000000pt" viewBox="0 0 159.000000 154.000000"
 preserveAspectRatio="xMidYMid meet">

<g transform="translate(0.000000,154.000000) scale(0.100000,-0.100000)"
fill="#000000" stroke="none">
<path d="M678 1364 l-78 -46 0 -559 0 -559 38 -23 c20 -13 60 -36 87 -51 l50
-28 75 44 75 44 3 277 c1 152 6 277 10 276 4 0 50 -31 102 -68 l95 -67 3 -146
3 -147 97 58 97 57 3 331 2 331 -97 55 -98 55 -5 -158 -5 -159 -102 62 -103
62 0 157 0 156 -80 46 c-43 25 -83 46 -87 46 -4 0 -43 -21 -85 -46z"/>
<path d="M498 1257 l-38 -22 0 -480 0 -480 40 -23 40 -23 0 526 c0 289 -1 525
-2 525 -2 -1 -20 -11 -40 -23z"/>
<path d="M353 1170 l-33 -20 0 -397 0 -398 31 -17 c17 -10 35 -18 40 -18 5 0
9 177 9 435 0 239 -3 435 -7 435 -5 0 -23 -9 -40 -20z"/>
<path d="M222 1094 c-22 -15 -22 -15 -22 -344 l0 -329 30 -16 30 -16 0 361 c0
198 -3 360 -8 360 -4 0 -18 -7 -30 -16z"/>
</g>
</svg>
