<?xml version="1.0" encoding="UTF-8"?>
<svg id="Layer_1" data-name="Layer 1" xmlns="http://www.w3.org/2000/svg" viewBox="0 0 150 150">
  <defs>
    <style>
      .cls-1 {
        fill: none;
      }

      .cls-2 {
        fill: #231f20;
      }
    </style>
  </defs>
  <g id="Layer_2" data-name="Layer 2">
    <path class="cls-1" d="M0,0H150V150H0V0Z"/>
  </g>
  <path class="cls-2" d="M101.56,133.19c-.74-.34-1.52-.28-2.32-.36-7.2-.69-12.52-6.13-17.61-10.73-6.47-5.8-15.04-11.4-24-7.63-3.81,1.6-6.62,4.99-7.93,8.89-1.25,3.63,1.81,7.41,5.66,5.74,.06-.02,.12-.04,.19-.07,5.38-2.54,11.26-1.49,16.21,1.49,4.34,2.62,7.47,6.71,11.6,9.61,3.62,2.54,8.04,3.86,12.37,2.48,2.57-.82,7.82-3.22,7.75-6.52-.02-1.24-.79-2.4-1.91-2.92h0Z"/>
  <path class="cls-2" d="M125.53,93.52c-1.69-1.21-3.8-2.09-5.81-1.57-2,.52-3.55,2.92-2.57,4.76,.52,.99,1.59,1.55,2.36,2.36,2.37,2.45,1.42,6.97-1.42,8.85s-6.82,1.35-9.6-.64c-2.77-1.98-4.66-6.5-4.71-10.18-.06-12.16,.36-23.09,.59-32.79,.35-2.32,2.15-2.58,3.28-3.3,.66-.42,.66-1.39,.04-1.85-1.19-.89-3.14-1.68-3.28-4.2,.06-8.53-1.11-17.43,.08-24.8,.57-3.85,3.22-7.29,1.97-8.96-3.14-4.2-17.96-4.29-20.98,0-1.09,1.55,1.09,4.58,1.6,7.97,.81,5.36,.62,10.41,.44,19.23,.2,1.89-.86,3.56-2.92,3.26l-18.35-1.55c-1.18-.22-2.02-1.25-2.02-2.45,0-.58,0-1.16-.01-1.74-.03-1.44-.05-2.7-.07-3.83h.02c.12-15.98-.64-20.78-6.02-25.91-10.11-9.7-29.46-11.77-36.22,2.82-2.83,6.25-.67,14.36,4.9,18.37,1.69,1.21,3.81,2.09,5.81,1.57s3.55-2.92,2.57-4.76c-.52-.99-1.59-1.55-2.36-2.36-2.37-2.45-1.42-6.97,1.42-8.85s6.82-1.35,9.6,.64c2.75,1.96,3.61,3.83,4.61,7.02,.84,6.01,.4,4.53,.16,12.22-.07,2.47-.12,4.84-.14,7.04-.21,2.4-2.12,3.17-3.28,4.04-.62,.46-.61,1.42,.04,1.84,1.12,.72,2.91,.97,3.28,3.25,.23,9.07,.67,22.17-.06,27.24-.79,3.39-3.43,5.92-6.66,6.26-2.58,.26-5.76-.42-7.32,1.65-1.88,2.72,.61,5.87,3.13,7.13,5.62,3.23,13.02,3.07,18.5-.38,5.48-3.46,8.08-8.13,8.08-22.29-.45-4.73-.28-9.23,0-13.02v-.02c.11-1.47,1.46-2.54,2.92-2.27l18.31,1.59c1.12,.21,1.96,1.15,2.02,2.28,.02,.31,.04,.61,.06,.9,.23,3.13,.7,12.34,.79,21.58-.01,16.27,.12,20.77,5.5,25.91,5.38,5.14,12.83,6.77,20.27,6.87,15.35-.07,24.32-18.71,11.46-28.93h-.02Z"/>
</svg>